<svg width="186" height="66" viewBox="0 0 186 66" fill="none" xmlns="http://www.w3.org/2000/svg">
<path d="M7.9476 33.5701H2.62598V34.2084H7.9476V33.5701Z" fill="#52C306"/>
<path d="M7.9476 37.5354H2.62598V38.1737H7.9476V37.5354Z" fill="#52C306"/>
<path d="M7.9476 41.5012H2.62598V42.1395H7.9476V41.5012Z" fill="#52C306"/>
<path d="M7.94634 45.4681H5.26514V46.1064H7.94634V45.4681Z" fill="#52C306"/>
<path d="M7.9476 49.4337H2.62598V50.072H7.9476V49.4337Z" fill="#52C306"/>
<path d="M7.9476 53.3993H2.62598V54.0375H7.9476V53.3993Z" fill="#52C306"/>
<path d="M7.94634 57.3648H5.26514V58.0031H7.94634V57.3648Z" fill="#52C306"/>
<path d="M15.8498 16.0377H14.583V39.615H15.8498V16.0377Z" fill="#52C306"/>
<path d="M19.9787 16.0377H18.7119V39.615H19.9787V16.0377Z" fill="#52C306"/>
<path d="M59.9955 33.4696C59.7736 20.5729 51.8595 7.82727 34.1083 7.82727H17.9143V0H16.6475V7.93367L13.7683 9.98902L9.28406 13.1905V29.319L0 24.0742V60.0067H1.26683V26.2541L9.28406 30.7832V60.0067H10.5713V30.0469L10.5509 30.036V13.8507L13.7683 11.5535L17.2809 9.04597L24.0097 13.8507V40.5485C23.8238 40.5582 23.639 40.5727 23.4579 40.5908C20.2104 40.9185 17.8111 42.5773 17.8111 44.6338H19.078C19.078 43.9604 19.6214 43.2713 20.5679 42.7429C21.3657 42.298 22.3638 41.9994 23.4579 41.876C23.843 41.8313 24.2389 41.8083 24.6431 41.8083C26.1931 41.8083 27.641 42.1408 28.7195 42.7429C29.666 43.2713 30.2083 43.9604 30.2083 44.6338V46.8427C28.9799 45.8102 26.9644 45.1489 24.6431 45.1489C24.2377 45.1489 23.8418 45.1694 23.4579 45.2081C20.2104 45.5358 17.8111 47.1934 17.8111 49.2511H19.078C19.078 48.5777 19.6214 47.8885 20.5679 47.3602C21.3657 46.9141 22.3638 46.6166 23.4579 46.4921C23.843 46.4474 24.2389 46.4256 24.6431 46.4256C26.1931 46.4256 27.641 46.7569 28.7195 47.3602C29.666 47.8885 30.2083 48.5777 30.2083 49.2511V51.4588C29.7872 51.1046 29.2738 50.7951 28.6871 50.54C27.5619 50.0515 26.1691 49.7662 24.6431 49.7662C24.2377 49.7662 23.8418 49.7867 23.4579 49.8254C20.2104 50.1531 17.8111 51.8106 17.8111 53.8684H19.078C19.078 53.195 19.6214 52.5058 20.5679 51.9775C21.6464 51.3742 23.0932 51.0429 24.6431 51.0429C26.1931 51.0429 27.641 51.3742 28.7195 51.9775C29.666 52.5058 30.2083 53.195 30.2083 53.8684V56.0761C28.9799 55.0436 26.9644 54.3823 24.6431 54.3823C20.8127 54.3823 17.8111 56.1849 17.8111 58.4857H19.078C19.078 57.8123 19.6214 57.1231 20.5679 56.5948C21.6464 55.9915 23.0932 55.6602 24.6431 55.6602C26.1931 55.6602 27.641 55.9915 28.7195 56.5948C29.666 57.1231 30.2083 57.8123 30.2083 58.4857V60.0067H31.4751H34.1083C52.2302 60.0067 60.2174 46.6638 59.9955 33.4696ZM34.1083 50.54H31.4751V44.6338C31.4751 42.4624 28.7999 40.7347 25.2765 40.5485V17.1441H34.1083C45.3514 17.1441 50.0852 25.27 50.3071 33.3947C50.5291 41.893 45.8685 50.54 34.1083 50.54Z" fill="#52C306"/>
<path d="M63.964 32.4854H72.024V36.8534H72.44C72.856 35.6401 73.6707 34.6174 74.884 33.7854C76.132 32.9188 77.744 32.4854 79.72 32.4854C80.3093 32.4854 80.864 32.5374 81.384 32.6414L81.02 40.0774C80.2227 39.8001 79.304 39.6614 78.264 39.6614C76.08 39.6614 74.4853 40.2161 73.48 41.3254C72.5093 42.4348 72.024 44.2721 72.024 46.8374V59.9934H63.964V32.4854ZM86.0189 32.4854H94.0789V59.9934H86.0189V32.4854ZM90.0229 27.9094C88.7749 27.9094 87.7349 27.4934 86.9029 26.6614C86.0709 25.7948 85.6549 24.7548 85.6549 23.5414C85.6549 22.2934 86.0709 21.2534 86.9029 20.4214C87.7349 19.5548 88.7749 19.1214 90.0229 19.1214C91.2709 19.1214 92.3109 19.5548 93.1429 20.4214C94.0096 21.2534 94.4429 22.2934 94.4429 23.5414C94.4429 24.7548 94.0096 25.7948 93.1429 26.6614C92.3109 27.4934 91.2709 27.9094 90.0229 27.9094ZM110.133 60.1494C107.394 60.1494 105.366 59.7334 104.049 58.9014C102.766 58.0694 101.969 57.0641 101.657 55.8854C101.345 54.7068 101.189 53.1988 101.189 51.3614L101.241 20.9934H109.301V49.6974C109.301 50.9108 109.353 51.8294 109.457 52.4534C109.596 53.0428 109.942 53.5108 110.497 53.8574C111.086 54.2041 112.005 54.3774 113.253 54.3774C113.912 54.3774 114.362 54.3428 114.605 54.2734V59.8894C113.045 60.0628 111.554 60.1494 110.133 60.1494ZM128.364 60.1494C125.625 60.1494 123.597 59.7334 122.28 58.9014C120.997 58.0694 120.2 57.0641 119.888 55.8854C119.576 54.7068 119.42 53.1988 119.42 51.3614L119.472 20.9934H127.532V49.6974C127.532 50.9108 127.584 51.8294 127.688 52.4534C127.826 53.0428 128.173 53.5108 128.728 53.8574C129.317 54.2041 130.236 54.3774 131.484 54.3774C132.142 54.3774 132.593 54.3428 132.836 54.2734V59.8894C131.276 60.0628 129.785 60.1494 128.364 60.1494ZM149.714 60.4614C146.802 60.4614 144.341 59.8028 142.33 58.4854C140.354 57.1334 138.881 55.3828 137.91 53.2334C136.974 51.0494 136.506 48.7094 136.506 46.2134C136.506 43.7174 136.974 41.3948 137.91 39.2454C138.881 37.0614 140.354 35.2934 142.33 33.9414C144.341 32.5894 146.837 31.9134 149.818 31.9134C153.701 31.9134 156.786 33.1441 159.074 35.6054C161.362 38.0321 162.506 41.5681 162.506 46.2134V48.4494H144.306V48.8654C144.306 50.2868 144.791 51.5174 145.762 52.5574C146.767 53.5628 148.033 54.0654 149.558 54.0654C150.737 54.0654 151.742 53.8054 152.574 53.2854C153.406 52.7308 153.995 52.0028 154.342 51.1014H162.298C161.605 53.8401 160.166 56.0934 157.982 57.8614C155.833 59.5948 153.077 60.4614 149.714 60.4614ZM154.758 43.2494C154.723 41.3774 154.238 39.9908 153.302 39.0894C152.401 38.1881 151.187 37.7374 149.662 37.7374C148.102 37.7374 146.854 38.2228 145.918 39.1934C145.017 40.1641 144.549 41.5161 144.514 43.2494H154.758ZM167.405 32.4854H175.465V36.8534H175.881C176.297 35.6401 177.112 34.6174 178.325 33.7854C179.573 32.9188 181.185 32.4854 183.161 32.4854C183.751 32.4854 184.305 32.5374 184.825 32.6414L184.461 40.0774C183.664 39.8001 182.745 39.6614 181.705 39.6614C179.521 39.6614 177.927 40.2161 176.921 41.3254C175.951 42.4348 175.465 44.2721 175.465 46.8374V59.9934H167.405V32.4854Z" fill="white"/>
</svg>
