<svg xmlns="http://www.w3.org/2000/svg" width="570.999" height="222.001" viewBox="0 0 570.999 222.001">
  <g id="Vector_Smart_Object" data-name="Vector Smart Object" transform="translate(-110.422 -147.332)">
    <text id="_" data-name="  " transform="translate(232.394 225.507)" fill="#1340a5" font-size="82" font-family="ProximaNova-Regular, Proxima Nova"><tspan x="0" y="0" letter-spacing="0.061em"> </tspan><tspan y="0"> </tspan></text>
    <path id="Path_3" data-name="Path 3" d="M556.033,204.571a106.707,106.707,0,0,0,22.808-12.626,69.587,69.587,0,0,0-40.925-20.213,126.444,126.444,0,0,1,18.117,32.839" fill="#1340a5" fill-rule="evenodd"/>
    <path id="Path_4" data-name="Path 4" d="M498.51,203.373a126.449,126.449,0,0,1,17.374-31.111,69.526,69.526,0,0,0-37.2,19.416,104.308,104.308,0,0,0,19.828,11.695" fill="#1340a5" fill-rule="evenodd"/>
    <path id="Path_5" data-name="Path 5" d="M557.105,207.772a91.192,91.192,0,0,1,4.424,26.4h35.65a63.237,63.237,0,0,0-16.189-39.938,111.416,111.416,0,0,1-23.885,13.535" fill="#1340a5" fill-rule="evenodd"/>
    <path id="Path_6" data-name="Path 6" d="M529.364,209.989a73.077,73.077,0,0,0,22.583-3.927q-6.029-17.411-19.231-34.817c-1.106-.063-2.22-.1-3.351-.1Z" fill="#1340a5" fill-rule="evenodd"/>
    <path id="Path_7" data-name="Path 7" d="M406.109,219.208a7.143,7.143,0,0,0,4.495-1.695,12.387,12.387,0,0,0,3.56-5.426,20.886,20.886,0,0,0,1.419-7.5,8.3,8.3,0,0,0-1.911-5.793,5.983,5.983,0,0,0-4.62-2.1,7.536,7.536,0,0,0-6.072,3.268,17.955,17.955,0,0,0-3.489,11.382,8.162,8.162,0,0,0,1.978,5.693,6.083,6.083,0,0,0,4.641,2.179" fill="#1340a5" fill-rule="evenodd"/>
    <path id="Path_8" data-name="Path 8" d="M497.562,266.012a94.765,94.765,0,0,1-5.05-27h-32.4a63.377,63.377,0,0,0,16.151,39.508,115.069,115.069,0,0,1,21.3-12.509" fill="#1340a5" fill-rule="evenodd"/>
    <path id="Path_9" data-name="Path 9" d="M555.682,267.907a135.689,135.689,0,0,1-17.971,33.173,69.713,69.713,0,0,0,41.034-20.13,101.746,101.746,0,0,0-23.063-13.043" fill="#1340a5" fill-rule="evenodd"/>
    <path id="Path_10" data-name="Path 10" d="M492.479,234.175a91.332,91.332,0,0,1,4.854-27.576,107.254,107.254,0,0,1-20.788-12.651A63.235,63.235,0,0,0,460.1,234.175Z" fill="#1340a5" fill-rule="evenodd"/>
    <path id="Path_11" data-name="Path 11" d="M498.681,269.176A109.4,109.4,0,0,0,478.4,280.817a69.471,69.471,0,0,0,37.282,19.671,136.379,136.379,0,0,1-17-31.311" fill="#1340a5" fill-rule="evenodd"/>
    <path id="Path_12" data-name="Path 12" d="M524.519,262.782a74.989,74.989,0,0,0-21.886,4.821,133.221,133.221,0,0,0,18.405,33.661c1.152.117,2.308.213,3.481.275Z" fill="#1340a5" fill-rule="evenodd"/>
    <path id="Path_13" data-name="Path 13" d="M551.7,266.442a71.97,71.97,0,0,0-22.328-3.8v39c1.064,0,2.145-.033,3.189-.088q13-17.561,19.14-35.114" fill="#1340a5" fill-rule="evenodd"/>
    <path id="Path_14" data-name="Path 14" d="M561.479,239.017a94.2,94.2,0,0,1-4.662,25.61,103.8,103.8,0,0,1,24.043,14.053,63.186,63.186,0,0,0,16.31-39.663Z" fill="#1340a5" fill-rule="evenodd"/>
    <path id="Path_15" data-name="Path 15" d="M557.005,239.017H529.368v20.009a72.946,72.946,0,0,1,23.43,4.1,93.05,93.05,0,0,0,4.207-24.107" fill="#1340a5" fill-rule="evenodd"/>
    <path id="Path_16" data-name="Path 16" d="M501.389,208.319a90.183,90.183,0,0,0-4.436,25.86h27.566V213.49a74.307,74.307,0,0,1-23.129-5.171" fill="#1340a5" fill-rule="evenodd"/>
    <path id="Path_17" data-name="Path 17" d="M524.519,259.184V239.013H496.99a92.471,92.471,0,0,0,4.528,25.36,77.169,77.169,0,0,1,23-5.188" fill="#1340a5" fill-rule="evenodd"/>
    <path id="Path_18" data-name="Path 18" d="M529.364,163.189v3.448c40.153.376,72.6,31.462,72.6,69.76s-32.449,69.367-72.593,69.743v3.418c90.435-13.894,152.048-41.453,152.048-73.186s-61.63-59.288-152.057-73.182" fill="#1340a5" fill-rule="evenodd"/>
    <path id="Path_19" data-name="Path 19" d="M524.519,310.25h0v-4.207C485.943,304,455.306,273.6,455.306,236.4s30.638-67.623,69.213-69.655v-4.278c-38.651-5.664-82.326-8.852-128.6-8.852-157.67,0-285.5,37.054-285.5,82.761s127.83,82.778,285.5,82.778c46.263,0,89.934-3.2,128.6-8.861ZM396.856,177.617h9.39l-3.36,16a18.816,18.816,0,0,1,4.829-2.792,13.708,13.708,0,0,1,4.858-.835,11.254,11.254,0,0,1,8.793,3.673q3.3,3.681,3.3,10.693a27.726,27.726,0,0,1-1.569,9.191,20.161,20.161,0,0,1-4.144,7.25,18.022,18.022,0,0,1-5.438,4.145,13.887,13.887,0,0,1-5.993,1.361,11.588,11.588,0,0,1-10.939-6.536l-1.194,5.718h-8.526Zm-92.914,0,.43,33.494,16.418-33.494h10.667l1.11,33.131,15.772-33.131h9.528l-23.142,47.864h-9.962l-1.064-35-17.445,35H296.1l-1.79-47.864ZM153.793,236.9c0-30.084,46.618-55.06,107.889-59.976-49.506,8.669-85,32.234-85,59.96,0,27.789,35.671,51.4,85.385,60.022-61.459-4.842-108.273-29.867-108.273-60.006m136.252,52.067-1.081-35.009-17.428,35.009H261.368l-1.8-47.86h9.641l.422,33.494,16.41-33.494h10.684l1.106,33.127L313.6,241.112h9.532l-23.142,47.86Zm59.46-14.437H326.011c-.025.371-.033.651-.033.843a7.857,7.857,0,0,0,1.974,5.584,6.318,6.318,0,0,0,4.82,2.124c3.109,0,5.53-1.615,7.274-4.825l8.389,1.394a17.759,17.759,0,0,1-6.552,7.6,17.163,17.163,0,0,1-9.182,2.525,15.316,15.316,0,0,1-11.369-4.424q-4.363-4.42-4.365-11.707a21.314,21.314,0,0,1,3.944-12.663q5.4-7.513,15.383-7.509,6.36,0,10.116,3.936t3.752,11.019a25.916,25.916,0,0,1-.659,6.1M355.66,197.5q5.384-7.519,15.363-7.513c4.249,0,7.612,1.315,10.125,3.936,2.492,2.629,3.752,6.3,3.752,11.019a26.966,26.966,0,0,1-.647,6.11H360.735c0,.367-.029.651-.029.835a7.863,7.863,0,0,0,1.982,5.6A6.36,6.36,0,0,0,367.5,219.6c3.113,0,5.534-1.607,7.283-4.833l8.4,1.407a17.7,17.7,0,0,1-6.561,7.588,17.061,17.061,0,0,1-9.186,2.538,15.306,15.306,0,0,1-11.364-4.428q-4.37-4.433-4.37-11.7A21.271,21.271,0,0,1,355.66,197.5m14.524,66.028a12.373,12.373,0,0,0-3.885,4.887,46.909,46.909,0,0,0-2.771,9.679l-2.3,10.877H351.87L359.1,254.3h8.748l-1.4,6.724q4.908-7.538,10.613-7.542a10.864,10.864,0,0,1,4.34,1.018l-3.585,7.663a8,8,0,0,0-2.713-.455,8.418,8.418,0,0,0-4.921,1.824m30.153,25.443-4.766-16.04-6.331,5.618-2.191,10.422h-9.378l10.037-47.86h9.361l-5.225,24.9L404.051,254.3h12.178l-13.939,12.6,7.408,22.079Zm28.234-23.64a30.932,30.932,0,0,0,5.259,1.824c4.566,1.331,7.612,2.646,9.178,3.919a8.257,8.257,0,0,1,3.264,6.524,11.016,11.016,0,0,1-4.148,8.556q-4.15,3.625-11.7,3.627-7.5,0-11.594-2.763a13.654,13.654,0,0,1-5.572-7.746l9.082-1.44a7.375,7.375,0,0,0,7.9,5.255,8.432,8.432,0,0,0,5.121-1.432,2.9,2.9,0,0,0,1.34-2.383,2.5,2.5,0,0,0-.684-1.7,12.1,12.1,0,0,0-3.89-1.761q-8.5-2.8-10.509-4.437a8.12,8.12,0,0,1-3.176-6.661,9.57,9.57,0,0,1,3.068-7.083q4.288-4.145,12.7-4.149,6.692,0,10.121,2.454a10.632,10.632,0,0,1,4.34,6.615l-8.66,1.507a5.325,5.325,0,0,0-2.216-2.842,9.489,9.489,0,0,0-5.017-1.273,7.121,7.121,0,0,0-4.232.985,2.8,2.8,0,0,0-1.29,2.25,2.528,2.528,0,0,0,1.306,2.158" fill="#1340a5" fill-rule="evenodd"/>
    <path id="Path_20" data-name="Path 20" d="M529.364,213.582v20.6h27.683A89.6,89.6,0,0,0,553,209.312a74.9,74.9,0,0,1-23.639,4.27" fill="#1340a5" fill-rule="evenodd"/>
    <path id="Path_21" data-name="Path 21" d="M335.276,260.173a7.356,7.356,0,0,0-5.2,2.183,11.617,11.617,0,0,0-3.113,6.473h14.657q.025-.614.025-.952c0-2.567-.563-4.491-1.724-5.776a5.944,5.944,0,0,0-4.641-1.928" fill="#1340a5" fill-rule="evenodd"/>
    <path id="Path_22" data-name="Path 22" d="M521.28,171.49a127.19,127.19,0,0,0-18.768,33.536,73.159,73.159,0,0,0,22,4.833V171.244c-1.081.067-2.166.146-3.234.246" fill="#1340a5" fill-rule="evenodd"/>
    <path id="Path_23" data-name="Path 23" d="M376.394,204.392a8.509,8.509,0,0,0-1.736-5.793,5.99,5.99,0,0,0-4.649-1.912,7.375,7.375,0,0,0-5.192,2.175,11.752,11.752,0,0,0-3.13,6.469h14.661c.017-.413.046-.73.046-.939" fill="#1340a5" fill-rule="evenodd"/>
    <path id="Path_24" data-name="Path 24" d="M524.526,147.332H529.4l-.029,15.881-4.845-.609Z" fill="#1340a5" fill-rule="evenodd"/>
    <path id="Path_25" data-name="Path 25" d="M524.526,325.569H529.4l-.029-15.91-4.845.634Z" fill="#1340a5" fill-rule="evenodd"/>
    <path id="Path_26" data-name="Path 26" d="M671.521,179.245A11.947,11.947,0,1,1,659.589,167.3a11.933,11.933,0,0,1,11.932,11.941m2.087,0a14.025,14.025,0,1,0-14.019,14.007,14.032,14.032,0,0,0,14.019-14.007" fill="#1340a5"/>
    <path id="Path_27" data-name="Path 27" d="M655.95,184.984V173.752h4.77a8.144,8.144,0,0,1,2.634.309,2.53,2.53,0,0,1,1.29,1.077,3.242,3.242,0,0,1,.492,1.77,3,3,0,0,1-.747,2.087,3.467,3.467,0,0,1-2.216,1.035,4.791,4.791,0,0,1,1.2.947,12.5,12.5,0,0,1,1.3,1.832l1.381,2.174h-2.7l-1.644-2.429a19.209,19.209,0,0,0-1.2-1.665,1.837,1.837,0,0,0-.68-.455,3.38,3.38,0,0,0-1.144-.134h-.459v4.683Zm2.279-6.486h1.665a8.715,8.715,0,0,0,2.041-.125,1.129,1.129,0,0,0,.634-.48,1.48,1.48,0,0,0,.234-.843,1.329,1.329,0,0,0-.3-.914,1.434,1.434,0,0,0-.839-.438c-.2-.025-.743-.038-1.661-.038h-1.77Z" fill="#1340a5"/>
    <path id="Path_28" data-name="Path 28" d="M273.188,340.985A12.646,12.646,0,0,1,282.732,345a14.664,14.664,0,0,1,0,19.767,12.646,12.646,0,0,1-9.545,4.011H262.149V340.985Zm0,22.551a7.692,7.692,0,0,0,5.872-2.4,9.758,9.758,0,0,0,0-12.5,7.689,7.689,0,0,0-5.872-2.4h-5.559v17.308Z" fill="#1340a5"/>
    <path id="Path_29" data-name="Path 29" d="M307.727,368.778l-1.765-5H294.543l-1.665,5h-5.914l9.724-27.789h6.79l9.8,27.789Zm-11.4-10.125h7.821L300.14,347.3Z" fill="#1340a5"/>
    <path id="Path_30" data-name="Path 30" d="M332.338,340.986v5.238h-7.5v22.551h-5.476V346.224H311.9v-5.238Z" fill="#1340a5"/>
    <path id="Path_31" data-name="Path 31" d="M351.632,368.778l-1.765-5H338.448l-1.665,5h-5.914l9.724-27.789h6.79l9.8,27.789Zm-11.4-10.125h7.821L344.045,347.3Z" fill="#1340a5"/>
    <path id="Path_32" data-name="Path 32" d="M383,369.333a13.884,13.884,0,0,1-10.359-4.17,14.984,14.984,0,0,1,0-20.585A13.93,13.93,0,0,1,383,340.43a14.112,14.112,0,0,1,6.966,1.77,12.9,12.9,0,0,1,4.983,4.783l-4.724,2.738a7.322,7.322,0,0,0-2.938-2.917,9.507,9.507,0,0,0-10.813,1.486,9.937,9.937,0,0,0,0,13.143A8.7,8.7,0,0,0,383,363.974a8.822,8.822,0,0,0,4.307-1.052,7.106,7.106,0,0,0,2.917-2.88l4.724,2.738a12.942,12.942,0,0,1-4.962,4.787A14.141,14.141,0,0,1,383,369.333" fill="#1340a5"/>
    <path id="Path_33" data-name="Path 33" d="M403.792,363.536h11.715v5.238H398.317V340.986h16.99v5.242H403.792v5.914h10.521V357.3H403.792Z" fill="#1340a5"/>
    <path id="Path_34" data-name="Path 34" d="M435.436,340.986h5.476v27.789h-4.169l-11.907-16.991v16.991h-5.48V340.986h4.169l11.911,16.929Z" fill="#1340a5"/>
    <path id="Path_35" data-name="Path 35" d="M464.454,340.986v5.238h-7.5v22.551h-5.476V346.224h-7.462v-5.238Z" fill="#1340a5"/>
    <path id="Path_36" data-name="Path 36" d="M472.985,363.536H484.7v5.238H467.509V340.986H484.5v5.242H472.985v5.914h10.521V357.3H472.985Z" fill="#1340a5"/>
    <path id="Path_37" data-name="Path 37" d="M503.793,368.774l-5.617-9.645h-4.148v9.645h-5.476V340.985h11.114a9.205,9.205,0,0,1,9.248,9.207,8.447,8.447,0,0,1-1.469,4.787,9.208,9.208,0,0,1-3.89,3.314l6.156,10.48Zm-9.766-22.667v8.218h5.638a3.483,3.483,0,0,0,2.659-1.21,4.167,4.167,0,0,0,1.114-2.922,4.093,4.093,0,0,0-1.114-2.9,3.5,3.5,0,0,0-2.659-1.189Z" fill="#1340a5"/>
    <path id="Path_38" data-name="Path 38" d="M521.973,369.333a12.416,12.416,0,0,1-6.949-1.845,9.877,9.877,0,0,1-3.969-5.025l4.687-2.738a6.243,6.243,0,0,0,6.39,4.249,5.508,5.508,0,0,0,3.376-.835,2.621,2.621,0,0,0-.242-4.387,20.136,20.136,0,0,0-4.683-1.766,29.011,29.011,0,0,1-3.155-1.114,13.225,13.225,0,0,1-2.579-1.49,6.049,6.049,0,0,1-1.966-2.358,7.723,7.723,0,0,1-.676-3.335,7.437,7.437,0,0,1,2.679-6.014,9.706,9.706,0,0,1,6.452-2.245,10.731,10.731,0,0,1,5.935,1.649,11.059,11.059,0,0,1,3.99,4.583l-4.607,2.663a5.539,5.539,0,0,0-5.317-3.573,4.2,4.2,0,0,0-2.679.772,2.454,2.454,0,0,0-.972,2.008,2.521,2.521,0,0,0,1.089,2.12,15.322,15.322,0,0,0,4.19,1.77c.843.263,1.49.472,1.924.613s1.031.371,1.786.676a11.072,11.072,0,0,1,1.749.851,14.257,14.257,0,0,1,1.411,1.073,5.619,5.619,0,0,1,1.21,1.39,8.068,8.068,0,0,1,.714,1.728,7.71,7.71,0,0,1,.3,2.2,7.457,7.457,0,0,1-2.8,6.115,11.218,11.218,0,0,1-7.283,2.262" fill="#1340a5"/>
  </g>
</svg>
